<svg xmlns="http://www.w3.org/2000/svg" width="124" height="135" viewBox="0 0 124 135" fill="none">
  <path d="M52.4936 64.4866H48.1985L52.4936 39.4085H37.4609C34.9698 39.4085 35.0127 38.2621 35.8288 37.044C36.6448 35.8259 36.0435 36.7574 36.1294 36.614C41.6701 28.4458 50.0025 16.265 61.0837 0H65.3789L61.0837 25.0781H76.1166C78.2212 25.0781 78.5218 26.2604 78.1353 26.9053L77.8346 27.4426C60.9119 52.1267 52.4936 64.4866 52.4936 64.4866Z" fill="#4C4C4C" fill-opacity="0.94"/>
  <path d="M45.5821 110.531H6.23462V57.6763H44.8894V67.9821H19.743V78.7098H44.2659V88.895H19.743V100.225H45.5821V110.531ZM86.313 94.9821L97.3968 57.7365H111.252L93.5867 110.531H79.1778L61.1665 57.7365H75.0906L86.313 94.9821Z" fill="#4C4C4C"/>
  <path d="M8.7008 132.035H0.831299V121.464H8.56225V123.525H3.53297V125.671H8.43756V127.708H3.53297V129.974H8.7008V132.035ZM12.8014 132.035H10.0859V121.464H12.8014V132.035ZM21.8957 128.696H16.7972V129.094C16.7972 129.913 17.573 130.396 18.723 130.396C19.7482 130.396 20.5241 130.179 21.106 129.853L21.3831 131.565C20.7735 131.963 19.6374 132.228 18.1826 132.228C16.4508 132.228 14.1925 131.408 14.1925 128.768V127.262C14.1925 124.694 16.3677 123.923 18.1411 123.923C20.0669 123.923 21.965 124.574 21.965 127.768C21.965 128.214 21.9373 128.491 21.8957 128.696ZM18.1549 125.755C17.476 125.755 16.7972 126.141 16.7972 126.997V127.238H19.4157V126.997C19.4157 126.141 18.8338 125.755 18.1549 125.755ZM27.0583 132.228C25.3542 132.228 23.0682 131.468 23.0682 128.708V127.442C23.0682 124.682 25.3542 123.923 27.0583 123.923C28.333 123.923 29.2058 124.152 29.8154 124.477L29.5383 126.237C29.095 126.008 28.4161 125.876 27.4601 125.876C26.4487 125.876 25.7144 126.358 25.7144 127.418V128.732C25.7144 129.793 26.4487 130.275 27.4601 130.275C28.3468 130.275 29.192 130.094 29.7046 129.817L29.9817 131.637C29.3028 131.999 28.333 132.228 27.0583 132.228ZM34.974 132.24C33.2838 132.24 32.1892 131.589 32.1892 129.769V126.273H30.6791V124.357H32.1892V121.826H34.8216V124.357H36.9276V126.273H34.8216V129.66C34.8216 130.07 35.0987 130.287 35.5421 130.299C35.9577 130.311 36.4981 130.263 36.789 130.167L36.9276 131.914C36.4426 132.107 35.7638 132.24 34.974 132.24ZM40.7128 132.035H38.0388V124.116H40.5881V124.718C41.0592 124.152 41.8905 123.923 42.5694 123.923C43.1235 123.923 43.553 124.031 43.9133 124.272L43.7747 126.309C43.3868 126.141 42.9019 126.068 42.3892 126.068C41.3501 126.068 40.7544 126.49 40.7128 127.213V132.035ZM47.5452 123.429H44.8851V121.392H47.5452V123.429ZM47.5452 132.035H44.8851V124.116H47.5452V132.035ZM52.9142 132.228C51.2101 132.228 48.924 131.468 48.924 128.708V127.442C48.924 124.682 51.2101 123.923 52.9142 123.923C54.1888 123.923 55.0617 124.152 55.6713 124.477L55.3942 126.237C54.9509 126.008 54.272 125.876 53.316 125.876C52.3046 125.876 51.5703 126.358 51.5703 127.418V128.732C51.5703 129.793 52.3046 130.275 53.316 130.275C54.2027 130.275 55.0478 130.094 55.5605 129.817L55.8376 131.637C55.1587 131.999 54.1888 132.228 52.9142 132.228ZM65.2395 128.925L67.4563 121.476H70.227L66.6943 132.035H63.8125L60.2103 121.476H62.9951L65.2395 128.925ZM78.005 128.696H72.9065V129.094C72.9065 129.913 73.6823 130.396 74.8323 130.396C75.8575 130.396 76.6334 130.179 77.2153 129.853L77.4924 131.565C76.8828 131.963 75.7467 132.228 74.2919 132.228C72.5601 132.228 70.3018 131.408 70.3018 128.768V127.262C70.3018 124.694 72.477 123.923 74.2504 123.923C76.1762 123.923 78.0743 124.574 78.0743 127.768C78.0743 128.214 78.0466 128.491 78.005 128.696ZM74.2642 125.755C73.5854 125.755 72.9065 126.141 72.9065 126.997V127.238H75.525V126.997C75.525 126.141 74.9431 125.755 74.2642 125.755ZM82.1282 132.035H79.4542V121.464H82.1282V124.622C82.6131 124.14 83.4028 123.923 84.248 123.923C85.9244 123.923 87.4069 124.706 87.4069 127.25V132.035H84.6913V127.093C84.6913 126.273 84.151 125.876 83.4167 125.876C82.6824 125.876 82.1282 126.261 82.1282 127.033V132.035ZM91.5854 123.429H88.9253V121.392H91.5854V123.429ZM91.5854 132.035H88.9253V124.116H91.5854V132.035ZM96.9542 132.228C95.25 132.228 92.964 131.468 92.964 128.708V127.442C92.964 124.682 95.25 123.923 96.9542 123.923C98.2288 123.923 99.1016 124.152 99.7113 124.477L99.4342 126.237C98.9908 126.008 98.3119 125.876 97.3559 125.876C96.3445 125.876 95.6103 126.358 95.6103 127.418V128.732C95.6103 129.793 96.3445 130.275 97.3559 130.275C98.2426 130.275 99.0878 130.094 99.6004 129.817L99.8775 131.637C99.1986 131.999 98.2288 132.228 96.9542 132.228ZM103.845 132.035H101.129V121.464H103.845V132.035ZM112.939 128.696H107.841V129.094C107.841 129.913 108.616 130.396 109.766 130.396C110.792 130.396 111.567 130.179 112.149 129.853L112.426 131.565C111.817 131.963 110.681 132.228 109.226 132.228C107.494 132.228 105.236 131.408 105.236 128.768V127.262C105.236 124.694 107.411 123.923 109.184 123.923C111.11 123.923 113.008 124.574 113.008 127.768C113.008 128.214 112.981 128.491 112.939 128.696ZM109.198 125.755C108.519 125.755 107.841 126.141 107.841 126.997V127.238H110.459V126.997C110.459 126.141 109.877 125.755 109.198 125.755Z" fill="#4C4C4C"/>
</svg>